# xmcd
#
# Track frame offsets: 
#        150
#        10160
#        23437
#        38875
#        52267
#        64495
#        75900
#        89087
#        110000
#        122360
#        138950
#        149270
#        165125
#        180687
#        190700
#        203837
#        218575
#        232905
#
# Disc length: 3290 seconds
#
# Revision: 4
# Processed by: cddbd v1.5.2PL0 Copyright (c) Steve Scherf et al.
# Submitted via: ExactAudioCopy v0.95a5
#
DISCID=e90cd812
DTITLE=Donovan - Castle Masters Collection
DYEAR=1900
DGENRE=Folk
TTITLE0=Universal Soldier
TTITLE1=Sunny Goodge Street
TTITLE2=Josie
TTITLE3=Little Tin Soldier
TTITLE4=To Sing For You
TTITLE5=Gold Watch Blues
TTITLE6=Donna Donna
TTITLE7=The Ballad of Geraldine
TTITLE8=Colours
TTITLE9=The War Drags On
TTITLE10=Catch the Wind
TTITLE11=Turquoise
TTITLE12=Candy Man
TTITLE13=Jersey Thursday
TTITLE14=Why Do You Treat Me Like You Do
TTITLE15=Ballad of a Chrystal Man
TTITLE16=Hey Gyp (Dig the Slowness)
TTITLE17=Remember the Alamo
EXTD=
EXTT0=
EXTT1=
EXTT2=
EXTT3=
EXTT4=
EXTT5=
EXTT6=
EXTT7=
EXTT8=
EXTT9=
EXTT10=
EXTT11=
EXTT12=
EXTT13=
EXTT14=
EXTT15=
EXTT16=
EXTT17=
PLAYORDER=
